<?xml version="1.0" encoding="UTF-8" standalone="no"?>
<svg
   width="120"
   height="80"
   viewBox="0 0 31.749999 21.166667"
   version="1.1"
   id="svg1"
   xmlns="http://www.w3.org/2000/svg"
   xmlns:svg="http://www.w3.org/2000/svg">
  <defs
     id="defs1" />
  <g
     id="layer1">
    <path
       id="path14"
       style="font-variation-settings:normal;opacity:1;vector-effect:none;fill:#3584e4;fill-opacity:1;stroke-width:0.1;stroke-linecap:butt;stroke-linejoin:miter;stroke-miterlimit:4;stroke-dasharray:none;stroke-dashoffset:0;stroke-opacity:1;-inkscape-stroke:none;paint-order:markers fill stroke;stop-color:#000000;stop-opacity:1"
       d="M 2.2070119,19.26011 C 0.803555,17.958599 0,16.703323 0,10.583333 0,4.4633439 0.803555,3.208067 2.2070119,1.9065563 4.1090169,0.14271229 7.8721279,0 15.875,0 23.877872,0 27.640983,0.14271229 29.542988,1.9065563 30.946445,3.208067 31.75,4.4633439 31.75,10.583333 c 0,6.11999 -0.803555,7.375266 -2.207012,8.676777 -1.902005,1.763844 -5.665116,1.906556 -13.667988,1.906556 -8.0028721,0 -11.7659831,-0.142712 -13.6679881,-1.906556 z" />
    <path
       id="path2"
       style="fill:#ffffff;stroke-width:0.1;paint-order:markers fill stroke"
       transform="matrix(0.81911824,0,0,0.81911824,2.6134717,20.61735)"
       d="m 23.685928,-11.186196 -10.624561,6.134093 a 1.300896,1.300896 30 0 1 -1.951344,-1.126609 v -12.268186 a 1.300896,1.300896 150 0 1 1.951344,-1.126609 l 10.624561,6.134093 a 1.3008959,1.3008959 90 0 1 0,2.253218 z" />
  </g>
</svg>
