<?xml version="1.0" encoding="UTF-8" standalone="no"?>
<svg
   width="120"
   height="79.999992"
   viewBox="0 0 120 79.999992"
   version="1.1"
   id="svg1"
   xmlns="http://www.w3.org/2000/svg"
   xmlns:svg="http://www.w3.org/2000/svg">
  <defs
     id="defs1" />
  <g
     id="layer1">
    <path
       id="path14"
       style="font-variation-settings:normal;opacity:1;vector-effect:none;fill:#3584e4;fill-opacity:1;stroke-width:0.377953;stroke-linecap:butt;stroke-linejoin:miter;stroke-miterlimit:4;stroke-dasharray:none;stroke-dashoffset:0;stroke-opacity:1;-inkscape-stroke:none;paint-order:markers fill stroke;stop-color:#000000;stop-opacity:1"
       d="M 8.341462,72.794114 C 3.0370581,67.875017 0,63.130667 0,39.999997 0,16.869331 3.0370581,12.124977 8.341462,7.2058818 15.530142,0.53938501 29.752923,0 59.999998,0 90.247072,0 104.46985,0.53938501 111.65853,7.2058818 116.96294,12.124977 120,16.869331 120,39.999997 c 0,23.13067 -3.03706,27.87502 -8.34147,32.794117 -7.18868,6.666496 -21.411458,7.20588 -51.658532,7.20588 -30.247075,0 -44.469856,-0.539384 -51.658536,-7.20588 z" />
    <path
       id="path2"
       style="fill:#ffffff;stroke-width:0.1;paint-order:markers fill stroke"
       transform="matrix(3.0958798,0,0,3.0958798,9.8776879,77.923839)"
       d="m 23.685928,-11.186196 -10.624561,6.134093 a 1.300896,1.300896 30 0 1 -1.951344,-1.126609 v -12.268186 a 1.300896,1.300896 150 0 1 1.951344,-1.126609 l 10.624561,6.134093 a 1.3008959,1.3008959 90 0 1 0,2.253218 z" />
  </g>
</svg>
