<?xml version="1.0" encoding="UTF-8" standalone="no"?>
<svg
   width="120"
   height="120"
   viewBox="0 0 120 120"
   version="1.1"
   id="svg1"
   xmlns="http://www.w3.org/2000/svg"
   xmlns:svg="http://www.w3.org/2000/svg">
  <defs
     id="defs1" />
  <g
     id="layer1">
    <path
       id="path14"
       style="font-variation-settings:normal;opacity:1;vector-effect:none;fill:#3584e4;fill-opacity:1;stroke-width:0.377953;stroke-linecap:butt;stroke-linejoin:miter;stroke-miterlimit:4;stroke-dasharray:none;stroke-dashoffset:0;stroke-opacity:1;-inkscape-stroke:none;paint-order:markers fill stroke;stop-color:#000000;stop-opacity:1"
       d="M 8.341462,92.989239 C 3.0370581,88.070142 0,83.325792 0,60.195122 0,37.064456 3.0370581,32.320102 8.341462,27.401007 c 7.18868,-6.666497 21.411461,-7.205882 51.658536,-7.205882 30.247074,0 44.469852,0.539385 51.658532,7.205882 5.30441,4.919095 8.34147,9.663449 8.34147,32.794115 0,23.13067 -3.03706,27.87502 -8.34147,32.794117 -7.18868,6.666496 -21.411458,7.205881 -51.658532,7.205881 -30.247075,0 -44.469856,-0.539385 -51.658536,-7.205881 z" />
    <path
       id="path2"
       style="fill:#ffffff;stroke-width:0.1;paint-order:markers fill stroke"
       transform="matrix(3.0958798,0,0,3.0958798,9.8776879,98.118964)"
       d="m 23.685928,-11.186196 -10.624561,6.134093 a 1.300896,1.300896 30 0 1 -1.951344,-1.126609 v -12.268186 a 1.300896,1.300896 150 0 1 1.951344,-1.126609 l 10.624561,6.134093 a 1.3008959,1.3008959 90 0 1 0,2.253218 z" />
  </g>
</svg>
